<svg width="17" height="20" viewBox="0 0 17 20" fill="none" xmlns="http://www.w3.org/2000/svg">
<path d="M9.72392 0H12.1378C11.937 3.50202 13.5235 5.20749 17.0096 4.95445C17.0096 5.75405 17.0096 6.47267 17.0096 7.22672C17.0096 7.32288 16.7208 7.4747 16.5592 7.48482C15.0103 7.61846 13.4659 7.17904 12.2015 6.24494C12.2015 6.50304 12.1672 6.68522 12.1672 6.86741V13.6741C12.183 14.9033 11.8486 16.1101 11.2056 17.1443C10.5626 18.1784 9.63951 18.9943 8.55121 19.4901C7.46291 19.986 6.25751 20.14 5.08515 19.933C3.91279 19.7259 2.82527 19.167 1.95801 18.3258C1.09075 17.4846 0.482085 16.3982 0.207815 15.2021C-0.0664547 14.0059 0.005778 12.7528 0.415544 11.5988C0.82531 10.4447 1.55451 9.44079 2.51229 8.71198C3.47006 7.98316 4.61411 7.56167 5.80197 7.5C6.2916 7.5 6.78123 7.5 7.27086 7.5V10H6.2916C4.09315 10 2.49206 11.6043 2.49695 13.7753C2.49564 14.7637 2.87293 15.7124 3.54636 16.4142C4.21979 17.1159 5.13461 17.5136 6.09086 17.5202C6.58425 17.5192 7.0724 17.4156 7.52623 17.2155C7.98005 17.0154 8.39027 16.7229 8.73246 16.3556C9.07466 15.9882 9.34182 15.5534 9.51804 15.0771C9.69426 14.6007 9.77594 14.0926 9.7582 13.583C9.7582 9.31849 9.7582 5.0523 9.7582 0.784414L9.72392 0Z" fill="white"/>
</svg>
